<?xml version="1.0" encoding="UTF-8" standalone="no"?>
<!DOCTYPE svg PUBLIC "-//W3C//DTD SVG 1.1//EN" "http://www.w3.org/Graphics/SVG/1.1/DTD/svg11.dtd">
<svg width="100%" height="100%" viewBox="0 0 116 65" version="1.1" xmlns="http://www.w3.org/2000/svg" xmlns:xlink="http://www.w3.org/1999/xlink" xml:space="preserve" xmlns:serif="http://www.serif.com/" style="fill-rule:evenodd;clip-rule:evenodd;stroke-linejoin:round;stroke-miterlimit:1.41421;">
    <g transform="matrix(9.23503,0,0,10.9437,-288.017,-257.5)">
        <g id="Ebene1">
            <rect x="30.172" y="22.394" width="13.638" height="7.714" style="fill:rgb(88,188,83);"/>
        </g>
    </g>
    <g transform="matrix(1,0,0,1,47.412,16.479)">
        <g>
            <g>
                <path d="M8.702,2.989L8.711,2.989L8.702,2.989Z" style="fill:white;"/>
                <path d="M13.15,0.841C12.331,0.621 11.47,0.502 10.585,0.502C9.807,0.502 9.051,0.593 8.323,0.768C3.941,1.793 0.655,5.741 0.655,10.431C0.655,12.843 1.81,15.8 2.755,17.585C4.057,19.972 8.232,27.364 9.468,29.562L10.592,31.54L11.673,29.587C11.719,29.537 16.762,20.543 18.446,17.613C19.451,15.853 20.521,12.741 20.521,10.431C20.521,5.85 17.382,1.975 13.15,0.841ZM16.269,16.367C15.978,16.882 15.586,17.571 15.138,18.362C15.12,18.397 15.099,18.432 15.079,18.471C13.692,20.921 11.792,24.291 10.585,26.458C9.338,24.277 7.428,20.868 6.098,18.471C6.076,18.436 6.056,18.401 6.038,18.366C5.591,17.557 5.213,16.871 4.953,16.395C4.057,14.74 3.136,12.244 3.136,10.431C3.136,7.194 5.241,4.422 8.145,3.407C8.911,3.137 9.735,2.99 10.588,2.99C11.519,2.99 12.426,3.165 13.273,3.498C14.217,3.865 15.089,4.433 15.832,5.174C17.227,6.596 18.005,8.43 18.005,10.431C18.004,12.223 17.088,14.918 16.269,16.367Z" style="fill:white;fill-rule:nonzero;"/>
            </g>
            <path d="M6.098,18.471L6.038,18.471L6.038,18.366C6.056,18.401 6.076,18.436 6.098,18.471Z" style="fill:white;fill-rule:nonzero;"/>
            <path d="M15.138,18.362L15.138,18.471L15.079,18.471C15.099,18.432 15.12,18.397 15.138,18.362Z" style="fill:white;fill-rule:nonzero;"/>
        </g>
        <path d="M8.929,10.469C8.214,10.255 7.487,10.054 6.696,9.916C6.531,9.381 6.425,8.84 6.364,8.213C6.345,8.014 6.3,7.754 6.342,7.572C6.401,7.314 6.986,6.762 7.182,6.577C7.564,6.215 7.898,6.034 8.288,5.869C8.582,5.745 9.282,5.869 9.637,5.958C10.018,6.053 10.346,6.204 10.61,6.378C10.714,6.886 10.779,7.418 10.853,7.992C10.876,8.168 10.946,8.404 10.919,8.545C10.887,8.721 10.576,8.89 10.411,9.031C9.888,9.48 9.361,9.985 8.929,10.469Z" style="fill:white;"/>
        <path d="M8.929,10.47C8.248,10.267 7.507,10.059 6.696,9.917C6.528,9.374 6.423,8.833 6.363,8.213C6.359,8.175 6.355,8.134 6.35,8.092C6.33,7.917 6.307,7.718 6.341,7.572C6.4,7.315 6.985,6.762 7.177,6.58L7.181,6.576C7.563,6.215 7.9,6.032 8.288,5.868C8.37,5.833 8.491,5.816 8.646,5.816C8.961,5.816 9.365,5.888 9.637,5.957C9.992,6.045 10.329,6.191 10.611,6.377C10.707,6.844 10.77,7.332 10.836,7.849L10.854,7.992C10.862,8.048 10.873,8.108 10.886,8.172C10.912,8.308 10.939,8.449 10.921,8.545C10.897,8.674 10.724,8.8 10.571,8.911C10.512,8.954 10.457,8.994 10.412,9.032C9.855,9.51 9.343,10.007 8.93,10.47L8.929,10.47ZM8.646,5.818C8.491,5.818 8.371,5.836 8.288,5.87C7.901,6.034 7.564,6.217 7.183,6.578L7.179,6.582C6.987,6.763 6.402,7.317 6.343,7.572C6.309,7.719 6.332,7.917 6.352,8.091C6.357,8.134 6.362,8.175 6.365,8.213C6.425,8.833 6.53,9.374 6.697,9.916C7.508,10.056 8.249,10.264 8.929,10.467C9.341,10.005 9.854,9.508 10.41,9.031C10.455,8.992 10.511,8.951 10.57,8.909C10.722,8.798 10.894,8.672 10.919,8.545C10.936,8.449 10.909,8.308 10.883,8.173C10.871,8.108 10.859,8.048 10.852,7.992L10.834,7.85C10.767,7.332 10.705,6.844 10.609,6.378C10.328,6.193 9.991,6.048 9.637,5.959C9.365,5.891 8.961,5.818 8.646,5.818Z" style="fill:white;"/>
        <path d="M14.657,7.727C15.207,7.84 15.64,8.071 16.05,8.324C16.195,8.688 16.328,9.092 16.448,9.518C16.566,9.932 16.722,10.423 16.669,10.889C16.634,11.195 16.397,11.704 16.249,11.973C16.072,12.295 15.844,12.6 15.608,12.813C15.131,12.567 14.632,12.344 14.104,12.15C14.058,11.387 13.909,10.748 13.728,10.093C13.678,9.915 13.54,9.616 13.551,9.474C13.565,9.287 13.974,8.801 14.082,8.633C14.313,8.276 14.475,8.002 14.657,7.727Z" style="fill:white;"/>
        <path d="M15.608,12.815L15.607,12.814C15.113,12.559 14.607,12.336 14.104,12.151C14.055,11.363 13.894,10.696 13.727,10.093C13.71,10.035 13.685,9.964 13.657,9.888C13.604,9.739 13.543,9.57 13.55,9.474C13.561,9.336 13.781,9.04 13.943,8.824C14.001,8.745 14.052,8.677 14.081,8.633C14.192,8.461 14.285,8.312 14.376,8.167C14.471,8.014 14.561,7.869 14.656,7.726C15.22,7.842 15.66,8.081 16.051,8.323C16.189,8.669 16.323,9.071 16.449,9.518C16.459,9.551 16.468,9.584 16.478,9.618C16.591,10.013 16.72,10.461 16.67,10.889C16.634,11.207 16.38,11.737 16.25,11.973C16.066,12.308 15.839,12.607 15.609,12.814L15.608,12.815ZM14.656,7.728C14.564,7.871 14.473,8.015 14.378,8.168C14.287,8.313 14.194,8.463 14.083,8.634C14.054,8.679 14.003,8.747 13.945,8.825C13.784,9.041 13.562,9.337 13.552,9.474C13.545,9.569 13.606,9.738 13.66,9.888C13.687,9.963 13.713,10.034 13.729,10.093C13.896,10.696 14.057,11.362 14.105,12.15C14.608,12.334 15.113,12.557 15.607,12.812C15.837,12.604 16.064,12.306 16.248,11.972C16.377,11.736 16.631,11.206 16.668,10.889C16.717,10.461 16.588,10.014 16.475,9.619C16.466,9.585 16.456,9.551 16.447,9.518C16.32,9.072 16.186,8.67 16.048,8.324C15.658,8.083 15.22,7.844 14.656,7.728Z" style="fill:white;"/>
        <path d="M10.964,8.678C11.905,8.835 12.692,9.146 13.463,9.474C13.636,10.055 13.845,10.677 13.949,11.375C13.982,11.596 14.052,11.911 14.016,12.105C13.983,12.277 13.744,12.465 13.595,12.614C13.117,13.092 12.664,13.547 12.092,13.897C11.146,13.728 10.301,13.461 9.549,13.1C9.393,12.493 9.262,11.866 9.129,11.199C9.089,11.005 8.975,10.746 8.996,10.579C9.014,10.436 9.269,10.195 9.416,10.049C9.91,9.555 10.485,9.096 10.964,8.678Z" style="fill:white;"/>
        <path d="M12.092,13.898L12.091,13.898C11.16,13.732 10.305,13.464 9.548,13.102C9.384,12.463 9.245,11.785 9.127,11.199C9.114,11.133 9.092,11.06 9.069,10.984C9.025,10.839 8.981,10.689 8.994,10.579C9.011,10.448 9.221,10.24 9.374,10.088C9.388,10.074 9.402,10.061 9.415,10.048C9.769,9.693 10.161,9.361 10.539,9.04C10.687,8.914 10.828,8.794 10.963,8.677C11.914,8.835 12.72,9.157 13.463,9.472C13.491,9.565 13.519,9.658 13.548,9.753C13.702,10.261 13.862,10.787 13.95,11.375C13.957,11.419 13.965,11.466 13.973,11.515C14.007,11.718 14.046,11.949 14.017,12.105C13.991,12.243 13.834,12.39 13.695,12.52C13.66,12.553 13.626,12.584 13.596,12.615L13.591,12.619C13.114,13.097 12.663,13.548 12.092,13.897L12.092,13.898ZM10.964,8.679C10.83,8.796 10.689,8.916 10.54,9.042C10.162,9.363 9.771,9.695 9.417,10.049C9.404,10.063 9.39,10.076 9.376,10.09C9.231,10.233 9.013,10.449 8.997,10.58C8.983,10.689 9.028,10.839 9.072,10.983C9.095,11.06 9.116,11.132 9.129,11.198C9.247,11.784 9.386,12.462 9.55,13.1C10.305,13.462 11.161,13.73 12.091,13.895C12.661,13.547 13.112,13.096 13.589,12.618L13.594,12.613C13.625,12.583 13.658,12.552 13.693,12.518C13.832,12.388 13.988,12.242 14.014,12.105C14.044,11.949 14.005,11.719 13.971,11.516C13.962,11.466 13.954,11.419 13.948,11.376C13.86,10.788 13.7,10.262 13.546,9.754C13.517,9.659 13.489,9.566 13.461,9.474C12.719,9.159 11.914,8.838 10.964,8.679Z" style="fill:white;"/>
        <path d="M9.482,13.167C10.265,13.512 11.089,13.815 12.069,13.963C12.165,14.216 12.214,14.485 12.291,14.781C12.354,15.026 12.527,15.364 12.49,15.599C12.452,15.836 11.897,16.163 11.627,16.285C10.815,16.651 9.937,16.632 9.04,16.329C8.699,16.214 8.134,15.988 7.956,15.798C7.8,15.631 7.698,15.279 7.624,15.024C7.536,14.715 7.502,14.419 7.47,14.074C8.182,13.812 8.85,13.508 9.482,13.167Z" style="fill:white;"/>
        <path d="M10.34,16.559C9.927,16.559 9.489,16.482 9.04,16.331C8.644,16.196 8.122,15.977 7.956,15.799C7.797,15.631 7.693,15.266 7.623,15.025C7.532,14.705 7.498,14.392 7.469,14.074C8.155,13.821 8.832,13.516 9.481,13.166C10.175,13.471 11.024,13.804 12.07,13.962C12.138,14.141 12.182,14.328 12.229,14.525C12.249,14.608 12.269,14.694 12.292,14.781C12.311,14.856 12.341,14.938 12.371,15.025C12.443,15.227 12.517,15.436 12.491,15.599C12.452,15.84 11.882,16.171 11.628,16.286C11.225,16.467 10.792,16.559 10.34,16.559ZM9.481,13.168C8.833,13.518 8.156,13.823 7.47,14.074C7.5,14.391 7.534,14.704 7.625,15.024C7.695,15.265 7.8,15.629 7.957,15.797C8.124,15.975 8.645,16.194 9.04,16.327C9.489,16.479 9.927,16.557 10.341,16.557C10.792,16.557 11.225,16.465 11.627,16.283C11.881,16.169 12.451,15.838 12.489,15.599C12.515,15.436 12.441,15.227 12.369,15.026C12.339,14.939 12.309,14.856 12.29,14.781C12.267,14.694 12.246,14.608 12.227,14.526C12.18,14.328 12.136,14.141 12.068,13.963C11.023,13.807 10.174,13.473 9.481,13.168Z" style="fill:white;"/>
        <g>
            <path d="M12.91,4.852C12.926,5.177 12.95,5.509 12.888,5.803C12.046,5.868 11.282,6.01 10.676,6.311C10.094,5.95 9.349,5.751 8.421,5.736C8.407,5.418 8.409,5.085 8.377,4.785C9.583,4.222 11.768,4.25 12.91,4.852Z" style="fill:white;"/>
            <path d="M10.676,6.313L10.676,6.312C10.084,5.946 9.325,5.752 8.421,5.738C8.415,5.638 8.412,5.536 8.41,5.437C8.404,5.218 8.398,4.992 8.375,4.786C8.926,4.527 9.724,4.38 10.564,4.38C11.487,4.38 12.342,4.552 12.91,4.851C12.913,4.883 12.914,4.913 12.916,4.944C12.93,5.236 12.946,5.537 12.889,5.803C11.927,5.879 11.225,6.04 10.677,6.312L10.676,6.313ZM10.564,4.382C9.724,4.382 8.927,4.53 8.377,4.787C8.4,4.992 8.406,5.218 8.412,5.437C8.415,5.536 8.418,5.638 8.422,5.736C9.326,5.75 10.085,5.943 10.676,6.31C11.224,6.038 11.927,5.876 12.888,5.801C12.943,5.536 12.928,5.235 12.913,4.944C12.912,4.913 12.91,4.883 12.909,4.852C12.341,4.554 11.486,4.382 10.564,4.382Z" style="fill:white;"/>
        </g>
        <g>
            <path d="M13.02,4.896C14.507,5.518 15.575,6.558 16.227,8.014C16.167,8.079 16.125,8.163 16.072,8.235C15.665,7.98 15.2,7.781 14.679,7.638C14.169,6.976 13.689,6.285 12.976,5.825C12.999,5.523 13.035,5.235 13.02,4.896Z" style="fill:white;"/>
            <path d="M16.073,8.237L16.071,8.236C15.668,7.983 15.2,7.782 14.679,7.64C14.62,7.564 14.563,7.489 14.506,7.414C14.064,6.834 13.607,6.234 12.976,5.826C12.98,5.759 12.985,5.695 12.991,5.63C13.011,5.4 13.031,5.162 13.019,4.896L13.019,4.894L13.021,4.895C14.499,5.514 15.578,6.563 16.228,8.014C16.19,8.055 16.159,8.104 16.129,8.151C16.111,8.179 16.093,8.209 16.073,8.236L16.073,8.237ZM13.021,4.898C13.033,5.163 13.013,5.401 12.993,5.63C12.988,5.695 12.982,5.76 12.977,5.825C13.609,6.232 14.066,6.832 14.508,7.412C14.565,7.488 14.622,7.563 14.68,7.638C15.2,7.78 15.669,7.981 16.072,8.234C16.091,8.207 16.11,8.178 16.127,8.15C16.157,8.103 16.188,8.054 16.225,8.013C15.576,6.565 14.498,5.517 13.021,4.898Z" style="fill:white;"/>
        </g>
        <g>
            <path d="M6.253,7.572C6.297,8.436 6.379,9.259 6.629,9.916C6.234,10.509 5.868,11.13 5.745,11.995C5.434,12.094 4.955,12.073 4.639,11.995C4.239,11.472 4.268,10.409 4.396,9.629C4.523,8.851 4.79,8.13 5.104,7.616C5.411,7.476 5.89,7.492 6.253,7.572Z" style="fill:white;"/>
            <path d="M5.229,12.063C5.025,12.063 4.81,12.038 4.639,11.996C4.156,11.365 4.33,10.024 4.395,9.628C4.516,8.887 4.774,8.153 5.103,7.615C5.254,7.546 5.459,7.51 5.697,7.51C5.877,7.51 6.075,7.532 6.254,7.571C6.293,8.344 6.368,9.227 6.63,9.916C6.252,10.484 5.872,11.111 5.746,11.995C5.609,12.04 5.43,12.063 5.229,12.063ZM5.697,7.512C5.46,7.512 5.255,7.549 5.104,7.617C4.776,8.154 4.518,8.888 4.397,9.629C4.333,10.025 4.158,11.364 4.64,11.994C4.811,12.036 5.026,12.06 5.229,12.06C5.43,12.06 5.608,12.037 5.745,11.994C5.87,11.111 6.25,10.483 6.629,9.915C6.366,9.227 6.291,8.345 6.252,7.572C6.075,7.534 5.877,7.512 5.697,7.512Z" style="fill:white;"/>
        </g>
        <g>
            <path d="M16.758,11.044C16.783,11.04 16.797,11.049 16.802,11.066C16.697,12.58 16.119,13.719 15.365,14.626C15.27,14.739 15.187,14.933 15.011,14.936C14.945,14.772 15.098,14.611 15.165,14.472C15.38,14.028 15.591,13.485 15.674,12.879C16.157,12.389 16.483,11.741 16.758,11.044Z" style="fill:white;"/>
            <path d="M15.01,14.937L15.01,14.936C14.96,14.812 15.036,14.687 15.103,14.578C15.126,14.54 15.148,14.505 15.164,14.471C15.436,13.909 15.603,13.388 15.673,12.879C16.204,12.339 16.531,11.615 16.757,11.044C16.762,11.042 16.765,11.042 16.768,11.042C16.787,11.042 16.799,11.05 16.803,11.065C16.709,12.412 16.239,13.577 15.365,14.627C15.344,14.652 15.323,14.682 15.301,14.714C15.229,14.817 15.147,14.935 15.011,14.937L15.01,14.937ZM16.768,11.044C16.765,11.044 16.761,11.045 16.758,11.045C16.533,11.615 16.206,12.34 15.675,12.88C15.605,13.389 15.439,13.91 15.166,14.472C15.15,14.506 15.128,14.542 15.105,14.579C15.038,14.688 14.963,14.812 15.012,14.935C15.147,14.932 15.228,14.816 15.299,14.713C15.321,14.681 15.342,14.652 15.363,14.626C16.237,13.576 16.707,12.412 16.801,11.066C16.796,11.052 16.786,11.044 16.768,11.044Z" style="fill:white;"/>
        </g>
        <g>
            <path d="M5.723,12.083C6.134,12.902 6.693,13.574 7.403,14.096C7.41,14.79 7.665,15.353 7.846,15.798C7.564,15.861 7.231,15.798 6.983,15.754C6.239,15.227 5.582,14.515 5.104,13.653C4.858,13.212 4.627,12.799 4.639,12.105C4.962,12.136 5.432,12.154 5.723,12.083Z" style="fill:white;"/>
            <path d="M7.58,15.826C7.382,15.826 7.177,15.79 7.013,15.761L6.983,15.755C6.214,15.211 5.564,14.484 5.102,13.654L5.099,13.648C4.856,13.21 4.626,12.796 4.638,12.105L4.638,12.104L4.639,12.104C4.769,12.116 4.968,12.131 5.182,12.131C5.407,12.131 5.589,12.115 5.722,12.082C6.135,12.902 6.701,13.578 7.404,14.094C7.41,14.734 7.628,15.263 7.802,15.688C7.818,15.725 7.833,15.762 7.847,15.798L7.847,15.799L7.846,15.799C7.767,15.817 7.678,15.826 7.58,15.826ZM4.64,12.107C4.629,12.796 4.858,13.209 5.101,13.646L5.105,13.653C5.566,14.482 6.216,15.209 6.984,15.753L7.013,15.758C7.178,15.787 7.383,15.824 7.58,15.824C7.677,15.824 7.766,15.815 7.844,15.797C7.83,15.762 7.815,15.726 7.8,15.69C7.625,15.264 7.408,14.735 7.402,14.096C6.699,13.581 6.134,12.903 5.722,12.084C5.589,12.117 5.407,12.134 5.182,12.134C4.968,12.134 4.77,12.119 4.64,12.107Z" style="fill:white;"/>
        </g>
        <g>
            <path d="M10.477,16.838C10.465,16.806 10.503,16.723 10.455,16.727C11.319,16.529 12.1,16.249 12.578,15.666C13.534,15.626 14.321,15.418 14.856,14.958C15.125,15.05 14.729,15.288 14.568,15.422C13.609,16.221 12.13,16.968 10.477,16.838Z" style="fill:white;"/>
            <path d="M10.855,16.854C10.729,16.854 10.602,16.849 10.477,16.839C10.472,16.826 10.474,16.807 10.476,16.789C10.479,16.767 10.482,16.744 10.473,16.734C10.469,16.73 10.464,16.729 10.455,16.729L10.455,16.726C11.218,16.551 12.066,16.289 12.577,15.665C13.605,15.623 14.35,15.391 14.855,14.957C14.912,14.976 14.942,15.002 14.947,15.035C14.962,15.124 14.798,15.248 14.667,15.347C14.631,15.375 14.597,15.401 14.569,15.423C14.052,15.853 12.656,16.854 10.855,16.854ZM10.464,16.726C10.468,16.727 10.472,16.729 10.475,16.732C10.484,16.744 10.482,16.767 10.479,16.789C10.476,16.807 10.474,16.825 10.478,16.837C10.602,16.847 10.729,16.851 10.855,16.851C12.655,16.851 14.051,15.851 14.568,15.421C14.595,15.399 14.629,15.373 14.666,15.345C14.796,15.246 14.959,15.123 14.945,15.036C14.94,15.003 14.91,14.977 14.855,14.959C14.351,15.393 13.606,15.625 12.578,15.667C12.069,16.288 11.225,16.552 10.464,16.726Z" style="fill:white;"/>
        </g>
        <path d="M10.556,16.868C7.104,16.868 4.295,14.06 4.295,10.607C4.295,7.155 7.104,4.346 10.556,4.346C14.009,4.346 16.818,7.155 16.818,10.607C16.818,14.06 14.009,16.868 10.556,16.868ZM10.556,4.519C7.2,4.519 4.469,7.25 4.469,10.607C4.469,13.964 7.2,16.695 10.556,16.695C13.913,16.695 16.644,13.964 16.644,10.607C16.644,7.25 13.913,4.519 10.556,4.519Z" style="fill:white;fill-rule:nonzero;"/>
    </g>
</svg>
